<?xml version="1.0" encoding="UTF-8"?>
<svg width="20px" height="20px" viewBox="0 0 20 20" version="1.1" xmlns="http://www.w3.org/2000/svg" xmlns:xlink="http://www.w3.org/1999/xlink">
    <!-- Generator: Sketch 52.6 (67491) - http://www.bohemiancoding.com/sketch -->
    <title>icon_edit</title>
    <desc>Created with Sketch.</desc>
    <defs>
        <linearGradient x1="72.8351141%" y1="6.38618059%" x2="14.3477817%" y2="100%" id="linearGradient-1">
            <stop stop-color="#00F0FE" offset="0%"></stop>
            <stop stop-color="#1A97FF" offset="100%"></stop>
        </linearGradient>
        <linearGradient x1="75.2514046%" y1="0%" x2="12.6723248%" y2="100%" id="linearGradient-2">
            <stop stop-color="#A3BACC" offset="0%"></stop>
            <stop stop-color="#7A8B99" offset="100%"></stop>
        </linearGradient>
        <polygon id="path-3" points="7.8817734e-06 7.82396088e-06 12.1222148 7.82396088e-06 12.1222148 16 7.8817734e-06 16"></polygon>
    </defs>
    <g id="酷耍web站2.0视觉规范" stroke="none" stroke-width="1" fill="none" fill-rule="evenodd">
        <g id="酷耍web站2.0_视觉规范" transform="translate(-706.000000, -2618.000000)">
            <g id="icon_20px" transform="translate(22.000000, 2588.000000)">
                <g id="icon_edit" transform="translate(684.000000, 30.000000)">
                    <g>
                        <g id="Group" transform="translate(3.000000, 2.000000)">
                            <polygon id="Fill-1" fill="url(#linearGradient-1)" points="9.65612448 11.3597674 9.37931034 12.6896552 10.736663 12.6104999 15.4482759 8.42714363 14.3678934 7.17241379"></polygon>
                            <g id="Group-7">
                                <path d="M9.82850837,3.45033545 L11.5704985,3.45033545 L8.64624236,0.551675306 L8.64624236,2.27674132 C8.64825222,2.9242132 9.17640985,3.44849682 9.82850837,3.45033545" id="Fill-2" fill="url(#linearGradient-1)"></path>
                                <g id="Group-6">
                                    <mask id="mask-4" fill="white">
                                        <use xlink:href="#path-3"></use>
                                    </mask>
                                    <g id="Clip-5"></g>
                                    <path d="M7.75169261,11.137377 L2.56560394,11.137377 C2.34790936,11.137377 2.17151527,10.9622377 2.17151527,10.746179 C2.17151527,10.5301203 2.34790936,10.3549809 2.56560394,10.3549809 L7.75169261,10.3549809 C7.96934778,10.3549809 8.14578128,10.5301203 8.14578128,10.746179 C8.14578128,10.9622377 7.96934778,11.137377 7.75169261,11.137377 M7.75169261,13.7114993 L2.56560394,13.7114993 C2.34790936,13.7114993 2.17151527,13.5363599 2.17151527,13.3203012 C2.17151527,13.1042034 2.34790936,12.9291032 2.56560394,12.9291032 L7.75169261,12.9291032 C7.96934778,12.9291032 8.14578128,13.1042034 8.14578128,13.3203012 C8.14578128,13.5363599 7.96934778,13.7114993 7.75169261,13.7114993 M2.56560394,7.78085868 L9.97443153,7.78085868 C10.1919685,7.78085868 10.3685202,7.95615452 10.3685202,8.17205672 C10.3685202,8.38815452 10.1919685,8.56325477 9.97443153,8.56325477 L2.56560394,8.56325477 C2.34790936,8.56325477 2.17151527,8.38815452 2.17151527,8.17205672 C2.17151527,7.95615452 2.34790936,7.78085868 2.56560394,7.78085868 M2.56560394,5.20693203 L6.27003744,5.20693203 C6.48753498,5.20693203 6.66412611,5.38203227 6.66412611,5.59813007 C6.66412611,5.81403227 6.48753498,5.98932812 6.27003744,5.98932812 L2.56560394,5.98932812 C2.34790936,5.98932812 2.17151527,5.81403227 2.17151527,5.59813007 C2.17151527,5.38203227 2.34790936,5.20693203 2.56560394,5.20693203 M11.0226286,13.3633721 L8.99709163,13.4767804 L8.97336749,13.4767804 C8.85837241,13.4761545 8.74909163,13.426355 8.67393892,13.3398611 C8.59512118,13.2466386 8.56327882,13.1228636 8.58712118,13.0033526 L9.00091429,11.0631276 C9.01923941,10.979998 9.06325911,10.9046533 9.12714089,10.8479687 L12.1182345,8.25029633 L12.1182345,4.23273154 L9.82467783,4.23273154 C8.73659901,4.23241858 7.85451034,3.35683912 7.85423448,2.27674132 L7.85423448,7.82396088e-06 L1.18227389,7.82396088e-06 C0.530175369,0.00184645477 0.00186009852,0.526286553 7.8817734e-06,1.17360196 L7.8817734e-06,14.8264137 C0.00186009852,15.4737291 0.530175369,15.9981692 1.18227389,16.0000078 L10.9399488,16.0000078 C11.5920473,15.9981692 12.1202443,15.4737291 12.1222148,14.8264137 L12.1222148,12.5183452 L11.2590818,13.2655726 C11.1928749,13.3224137 11.1100768,13.3566435 11.0226286,13.3633721" id="Fill-4" fill="url(#linearGradient-1)" mask="url(#mask-4)"></path>
                                </g>
                            </g>
                        </g>
                        <rect id="矩形" x="0" y="0" width="20" height="20"></rect>
                    </g>
                </g>
            </g>
        </g>
    </g>
</svg>