<?xml version="1.0" encoding="UTF-8"?>
<svg width="20px" height="20px" viewBox="0 0 20 20" version="1.1" xmlns="http://www.w3.org/2000/svg" xmlns:xlink="http://www.w3.org/1999/xlink">
    <!-- Generator: Sketch 52.6 (67491) - http://www.bohemiancoding.com/sketch -->
    <title>icon_message_selected</title>
    <desc>Created with Sketch.</desc>
    <defs>
        <linearGradient x1="72.8351141%" y1="6.38618059%" x2="14.3477817%" y2="100%" id="linearGradient-1">
            <stop stop-color="#00F0FE" offset="0%"></stop>
            <stop stop-color="#1A97FF" offset="100%"></stop>
        </linearGradient>
    </defs>
    <g id="酷耍web站2.0视觉规范" stroke="none" stroke-width="1" fill="none" fill-rule="evenodd">
        <g id="酷耍web站2.0_视觉规范" transform="translate(-358.000000, -2618.000000)">
            <g id="icon_20px" transform="translate(22.000000, 2588.000000)">
                <g id="icon_message" transform="translate(339.000000, 32.000000)" fill="url(#linearGradient-1)">
                    <path d="M10.5014493,5.30526698 L3.50144928,5.30526698 C3.24130435,5.30526698 3.03478261,5.09549517 3.03478261,4.83709114 C3.03478261,4.57941297 3.24130435,4.36964116 3.50144928,4.36964116 L10.5014493,4.36964116 C10.7586957,4.36964116 10.9688406,4.57941297 10.9688406,4.83709114 C10.9688406,5.09549517 10.7586957,5.30526698 10.5014493,5.30526698 M10.5014493,7.4799256 L3.50144928,7.4799256 C3.24130435,7.4799256 3.03478261,7.27305721 3.03478261,7.01174976 C3.03478261,6.75407159 3.24130435,6.54720319 3.50144928,6.54720319 L10.5014493,6.54720319 C10.7586957,6.54720319 10.9688406,6.75407159 10.9688406,7.01174976 C10.9688406,7.27015379 10.7586957,7.4799256 10.5014493,7.4799256 M7,9.65458422 L3.50144928,9.65458422 C3.24130435,9.65458422 3.03478261,9.44771583 3.03478261,9.1893118 C3.03478261,8.93163363 3.24130435,8.72186182 3.50144928,8.72186182 L7,8.72186182 C7.25724638,8.72186182 7.4673913,8.92873021 7.4673913,9.1893118 C7.4673913,9.44771583 7.25724638,9.65458422 7,9.65458422 M7,0 C3.13333333,0 0,3.13859275 0,7.01174976 C0,9.01655854 0.843478261,10.8166765 2.1884058,12.0956313 L1.95289855,16 L5.27898551,13.8028399 C5.83115942,13.941478 6.4057971,14.0234995 7,14.0234995 C10.8666667,14.0234995 14,10.8849068 14,7.01174976 C14,3.13859275 10.8666667,0 7,0" transform="translate(7.000000, 8.000000) scale(-1, 1) translate(-7.000000, -8.000000) "></path>
                </g>
                <g id="切图框" transform="translate(40.000000, 0.000000)"></g>
            </g>
        </g>
    </g>
</svg>