<?xml version="1.0" encoding="UTF-8"?>
<svg width="16px" height="16px" viewBox="0 0 16 16" version="1.1" xmlns="http://www.w3.org/2000/svg" xmlns:xlink="http://www.w3.org/1999/xlink">
    <!-- Generator: Sketch 52.6 (67491) - http://www.bohemiancoding.com/sketch -->
    <title>icon_follow</title>
    <desc>Created with Sketch.</desc>
    <defs>
        <polygon id="path-1" points="-2.66666667e-06 0 7.99999733 0 7.99999733 6.172985 -2.66666667e-06 6.172985"></polygon>
        <linearGradient x1="50%" y1="0%" x2="46.3288727%" y2="100%" id="linearGradient-3">
            <stop stop-color="#00F2FE" offset="0%"></stop>
            <stop stop-color="#1A94FF" offset="100%"></stop>
        </linearGradient>
        <linearGradient x1="10.3317265%" y1="7.69468089%" x2="91.8522552%" y2="100%" id="linearGradient-4">
            <stop stop-color="#00F2FE" offset="0%"></stop>
            <stop stop-color="#1A94FF" offset="100%"></stop>
        </linearGradient>
    </defs>
    <g id="酷耍web站2.0视觉规范" stroke="none" stroke-width="1" fill="none" fill-rule="evenodd">
        <g id="酷耍web站2.0_视觉规范" transform="translate(-118.000000, -2532.000000)">
            <g id="icon_16px" transform="translate(22.000000, 2483.000000)">
                <g id="icon_follow" transform="translate(96.000000, 49.000000)">
                    <rect id="Rectangle-5" fill="#FFFFFF" opacity="0" x="0" y="0" width="16" height="16"></rect>
                    <g transform="translate(2.000000, 1.000000)">
                        <g id="Group-3" transform="translate(0.800000, 0.000000)">
                            <mask id="mask-2" fill="white">
                                <use xlink:href="#path-1"></use>
                            </mask>
                            <g id="Clip-2"></g>
                            <path d="M5.85895733,5.97691088 C6.12813067,5.72945505 6.38093067,5.49161775 6.60623733,5.26196172 C7.330104,4.52465225 7.99999733,3.68499398 7.99999733,2.54682985 C7.99999733,1.14962897 7.036344,-5.52788621e-06 5.80583733,-5.52788621e-06 C5.00469067,-5.52788621e-06 4.400424,0.476138951 4.01175733,1.04620222 C3.62301067,0.476553542 3.018344,-5.52788621e-06 2.218024,-5.52788621e-06 C0.932797333,-5.52788621e-06 -2.66666667e-06,1.03710884 -2.66666667e-06,2.38983788 C-2.66666667e-06,3.78853129 1.03229067,4.89648552 2.39999733,6.172985 L2.39999733,4.61577946 C2.39999733,3.47283371 3.29727733,2.54282213 4.39999733,2.54282213 C5.06165067,2.54282213 5.59999733,3.10080696 5.59999733,3.78659653 L5.59999733,5.10162538 C5.59999733,5.41331524 5.69415733,5.718344 5.85895733,5.97691088" id="Fill-1" fill="url(#linearGradient-3)" mask="url(#mask-2)"></path>
                        </g>
                        <path d="M3.4,10.8346487 C3.73136,10.8346487 4,11.1130883 4,11.4565359 C4,11.7999835 3.73136,12.0784231 3.4,12.0784231 L0.6,12.0784231 C0.26864,12.0784231 0,11.7999835 0,11.4565359 C0,11.1130883 0.26864,10.8346487 0.6,10.8346487 L3.4,10.8346487 Z M3.4,12.7646976 C3.73136,12.7646976 4,13.0412388 4,13.3823447 C4,13.7234506 3.73136,13.9999918 3.4,13.9999918 L0.6,13.9999918 C0.26864,13.9999918 0,13.7234506 0,13.3823447 C0,13.0412388 0.26864,12.7646976 0.6,12.7646976 L3.4,12.7646976 Z M11.6,8.23528588 C11.8209333,8.23528588 12,8.41961922 12,8.64705059 L12,12.96918 C12,13.0995722 11.94,13.2222506 11.8383467,13.299882 L10.97896,13.9560153 C10.7129067,14.0928584 10.4,13.8938388 10.4,13.587678 L10.4,8.23528588 L11.6,8.23528588 Z M0,7.20587412 C0,6.86476824 0.267895845,6.58822706 0.59833795,6.58822706 L3.19113573,6.58822706 L3.19113573,7.82352118 L0.59833795,7.82352118 C0.267895845,7.82352118 0,7.54698 0,7.20587412 Z M0,9.26469765 C0,8.92359176 0.267895845,8.64705059 0.59833795,8.64705059 L3.19113573,8.64705059 L3.19113573,9.88234471 L0.59833795,9.88234471 C0.267895845,9.88234471 0,9.60580353 0,9.26469765 Z M6.26540942,6.70887412 L8.49713019,8.23528588 L9.5734205,8.23528588 L9.5734205,13.1764624 L8.47104266,13.1764624 L6.9596144,13.9565643 C6.9042482,13.9850859 6.84308476,13.9999918 6.78117673,13.9999918 L4.64665263,13.9999918 C4.73385042,13.8120075 4.7867169,13.6042035 4.7867169,13.3823447 C4.7867169,12.9789525 4.6242615,12.6147878 4.36455623,12.3529329 C4.6242615,12.091078 4.7867169,11.7269133 4.7867169,11.3235212 C4.7867169,11.2942584 4.77996233,11.2668898 4.77831357,11.2380663 C5.14282105,11.42218 5.5499036,11.5294035 5.9833928,11.5294035 C6.20390028,11.5294035 6.38228476,11.34518 6.38228476,11.1176388 C6.38228476,10.8900976 6.20390028,10.7058741 5.9833928,10.7058741 C4.88370083,10.7058741 3.98893296,9.78220353 3.98893296,8.64705059 L3.98893296,4.52940353 C3.98893296,3.84719176 4.52469806,3.29410941 5.18560886,3.29410941 C5.40593019,3.29410941 5.58450083,3.47844275 5.58450083,3.70587412 L5.58450083,5.01193686 C5.58450083,5.64363882 5.83266482,6.26213686 6.26540942,6.70887412 Z" id="Combined-Shape" fill="url(#linearGradient-4)"></path>
                    </g>
                </g>
                <g id="切图框" transform="translate(44.000000, 0.000000)"></g>
            </g>
        </g>
    </g>
</svg>